<?xml version="1.0" standalone="no"?>
<!DOCTYPE svg PUBLIC "-//W3C//DTD SVG 20010904//EN"
 "http://www.w3.org/TR/2001/REC-SVG-20010904/DTD/svg10.dtd">
<svg version="1.0" xmlns="http://www.w3.org/2000/svg"
 width="500.000000pt" height="500.000000pt" viewBox="0 0 500.000000 500.000000"
 preserveAspectRatio="xMidYMid meet">
<metadata>
Created by potrace 1.15, written by Peter Selinger 2001-2017
</metadata>
<g transform="translate(0.000000,500.000000) scale(0.100000,-0.100000)"
fill="#000000" stroke="none">
<path d="M1893 3793 c357 -2 937 -2 1290 0 353 1 62 2 -648 2 -710 0 -998 -1
-642 -2z"/>
<path d="M1637 2733 c-3 -5 163 -7 369 -5 l374 2 0 -110 0 -110 -377 -3 -378
-2 383 -3 383 -2 -3 118 -3 117 -372 3 c-204 1 -374 -1 -376 -5z"/>
<path d="M1928 1873 l452 -3 0 -110 0 -110 -592 -3 -593 -2 595 0 595 0 3 118
3 117 -458 -2 -458 -3 453 -2z"/>
<path d="M2640 1760 l0 -120 628 2 627 3 -622 2 -623 3 0 110 0 110 428 3 427
2 -432 3 -433 2 0 -120z"/>
</g>
</svg>
