<?xml version="1.0" standalone="no"?>
<!DOCTYPE svg PUBLIC "-//W3C//DTD SVG 20010904//EN"
 "http://www.w3.org/TR/2001/REC-SVG-20010904/DTD/svg10.dtd">
<svg version="1.0" xmlns="http://www.w3.org/2000/svg"
 width="500.000000pt" height="500.000000pt" viewBox="0 0 500.000000 500.000000"
 preserveAspectRatio="xMidYMid meet">
<metadata>
Created by potrace 1.15, written by Peter Selinger 2001-2017
</metadata>
<g transform="translate(0.000000,500.000000) scale(0.100000,-0.100000)"
fill="#000000" stroke="none">
<path d="M2295 4994 c-328 -34 -608 -111 -880 -243 -265 -128 -464 -269 -681
-486 -388 -387 -625 -859 -711 -1415 -25 -162 -25 -539 0 -700 43 -272 117
-510 232 -745 128 -261 270 -460 475 -666 211 -212 401 -348 665 -479 790
-392 1734 -335 2471 148 164 108 259 185 400 326 141 141 218 236 326 401 360
548 487 1208 357 1858 -118 593 -464 1144 -943 1500 -158 118 -240 169 -411
252 -232 114 -473 189 -735 230 -101 16 -475 28 -565 19z m535 -209 c749 -110
1396 -579 1738 -1261 182 -363 267 -800 233 -1199 -53 -618 -337 -1180 -795
-1572 -698 -598 -1680 -729 -2501 -334 -597 287 -1043 814 -1224 1446 -255
891 54 1861 775 2435 356 284 770 451 1234 500 120 12 404 4 540 -15z"/>
<path d="M2300 4633 c-88 -7 -276 -43 -384 -73 -339 -95 -640 -269 -899 -519
-335 -324 -549 -725 -628 -1181 -27 -151 -36 -421 -20 -571 43 -397 183 -755
418 -1074 90 -121 305 -335 432 -429 399 -296 862 -441 1356 -423 537 19 1023
225 1410 599 531 511 757 1242 610 1973 -199 990 -1096 1715 -2105 1703 -80
-1 -165 -3 -190 -5z m1565 -868 c25 -24 25 -24 25 -234 0 -204 -1 -211 -23
-236 -21 -25 -29 -27 -95 -27 -111 0 -112 2 -112 184 l0 148 -1120 0 -1120 0
0 -150 c0 -160 -7 -191 -47 -209 -31 -14 -115 -14 -147 0 -43 20 -47 49 -44
288 3 220 3 223 27 242 23 18 59 19 1328 19 l1304 0 24 -25z m-1277 -271 c31
-9 52 -53 52 -114 l0 -50 409 0 c470 0 450 4 458 -86 5 -43 2 -54 -20 -80
l-25 -29 -411 -3 -411 -3 0 -105 0 -104 504 0 505 0 21 -27 c20 -26 21 -32 18
-499 -3 -439 -4 -475 -21 -491 -16 -17 -53 -18 -522 -21 l-505 -3 0 -119 0
-120 629 0 630 0 20 -26 c30 -38 29 -114 -2 -149 l-22 -27 -628 -5 -627 -6 0
-147 c0 -133 -2 -150 -20 -173 -35 -45 -169 -48 -211 -6 -17 17 -19 35 -19
172 l0 154 -600 6 c-698 6 -650 -1 -650 100 0 112 -62 101 637 107 l608 5 3
118 3 117 -481 0 -481 0 -24 25 -25 24 0 474 c0 393 2 476 14 493 14 18 34 19
503 24 l488 5 0 100 0 100 -386 5 c-451 6 -429 1 -429 102 0 45 5 63 20 78 19
19 33 20 410 20 l390 0 0 60 c0 51 4 65 25 85 20 21 33 25 87 25 35 0 73 -3
86 -6z"/>
<path d="M1637 2733 c-4 -3 -7 -57 -7 -120 l0 -113 380 0 381 0 -3 118 -3 117
-371 3 c-204 1 -373 -1 -377 -5z"/>
<path d="M2640 2615 l0 -115 400 0 400 0 0 115 0 115 -400 0 -400 0 0 -115z"/>
<path d="M1630 2195 l0 -125 380 0 380 0 0 125 0 125 -380 0 -380 0 0 -125z"/>
<path d="M2640 2195 l0 -125 400 0 400 0 0 125 0 125 -400 0 -400 0 0 -125z"/>
</g>
</svg>
