<?xml version="1.0" standalone="no"?>
<!DOCTYPE svg PUBLIC "-//W3C//DTD SVG 20010904//EN"
 "http://www.w3.org/TR/2001/REC-SVG-20010904/DTD/svg10.dtd">
<svg version="1.0" xmlns="http://www.w3.org/2000/svg"
 width="935.000000pt" height="935.000000pt" viewBox="0 0 935.000000 935.000000"
 preserveAspectRatio="xMidYMid meet">
<metadata>
Created by potrace 1.15, written by Peter Selinger 2001-2017
</metadata>
<g transform="translate(0.000000,935.000000) scale(0.100000,-0.100000)"
fill="#000000" stroke="none">
<path d="M7152 7682 c-2 -591 -5 -742 -14 -736 -10 5 -10 4 -1 -6 7 -8 15 -11
18 -8 3 2 4 340 2 749 l-2 744 -3 -743z"/>
<path d="M2092 8247 l-22 -23 -2 -851 c-2 -468 0 -849 5 -846 4 2 7 385 7 850
l0 847 22 23 c12 13 19 23 16 23 -2 0 -14 -10 -26 -23z"/>
<path d="M2452 6733 l3 -768 2 763 3 762 475 -2 c261 -2 475 0 475 5 0 4 -216
7 -480 7 l-480 0 2 -767z"/>
<path d="M2457 5543 c-4 -3 -7 -548 -7 -1210 l0 -1203 210 0 c116 0 210 3 210
8 0 4 -92 6 -205 4 l-205 -3 0 1201 0 1202 75 -4 c41 -2 75 0 75 5 0 9 -144
10 -153 0z"/>
<path d="M2712 4495 c-1 -473 2 -865 6 -872 6 -10 6 882 -1 1492 -1 132 -3
-147 -5 -620z"/>
<path d="M2605 4400 c0 -437 1 -616 2 -397 2 218 2 576 0 795 -1 218 -2 39 -2
-398z"/>
<path d="M7042 1283 l-2 -153 -290 0 -291 0 3 -107 3 -108 287 -3 287 -2 4
-113 3 -112 2 118 2 117 -290 0 -290 0 0 100 0 100 285 0 c225 0 287 3 291 13
2 7 3 78 1 157 l-3 145 -2 -152z"/>
<path d="M5480 685 l0 -105 -946 0 c-520 0 -943 -3 -941 -7 3 -5 430 -6 949
-3 l943 5 3 100 c2 64 7 102 15 107 8 5 7 8 -5 8 -16 0 -18 -12 -18 -105z"/>
</g>
</svg>
